<svg xmlns="http://www.w3.org/2000/svg" width="960" height="540" viewBox="0 0 960 540">
<rect width="960" height="540" fill="#FBF6EC"/>
<rect x="40" y="28" width="880" height="56" rx="12" fill="#fff" fill-opacity=".92"/>
<text x="64" y="64" font-family="Roboto,system-ui,sans-serif" font-size="20" font-weight="700" fill="#1C1610">L'Aubiniere</text>
<rect x="760" y="40" width="140" height="32" rx="16" fill="#8B5A2B"/>
<text x="830" y="61" text-anchor="middle" font-family="Roboto,system-ui" font-size="13" fill="#fff">Contact</text>
<rect x="40" y="108" width="520" height="200" rx="28" fill="#8B5A2B" fill-opacity=".10"/>
<text x="64" y="160" font-family="Roboto,system-ui" font-size="32" font-weight="700" fill="#1C1610">L'Aubiniere</text>
<text x="64" y="196" font-family="Roboto,system-ui" font-size="16" fill="#6B5A45">Janze · Material v3</text>
<rect x="64" y="220" width="150" height="44" rx="22" fill="#8B5A2B"/>
<text x="139" y="248" text-anchor="middle" font-family="Roboto,system-ui" font-size="14" fill="#fff">Decouvrir</text>
<rect x="580" y="108" width="340" height="280" rx="28" fill="#8B5A2B" fill-opacity=".16"/>
<circle cx="750" cy="230" r="64" fill="#C4A46A" fill-opacity=".45"/>
<text x="64" y="360" font-family="Roboto,system-ui" font-size="13" fill="#6B5A45">products · markets · planning · story · contact</text>
<rect x="40" y="400" width="280" height="88" rx="16" fill="#fff" fill-opacity=".9"/>
<rect x="340" y="400" width="280" height="88" rx="16" fill="#fff" fill-opacity=".9"/>
<rect x="640" y="400" width="280" height="88" rx="16" fill="#fff" fill-opacity=".9"/>
<text x="480" y="520" text-anchor="middle" font-family="Roboto,system-ui" font-size="12" fill="#6B5A45">Apercu desktop · MOCKUP</text>
</svg>
